<svg id="Capa_1" enable-background="new 0 0 510.73 510.73" height="512" viewBox="0 0 510.73 510.73" width="512" xmlns="http://www.w3.org/2000/svg"><g><path d="m444.892 132.405 11.491 22.762c15.924 31.565 24.006 65.627 24.006 101.222 0 60.104-23.398 116.609-65.895 159.106l-.106.106c-42.483 42.426-98.96 65.796-159 65.789-35.73.007-69.883-8.125-101.526-24.155l-22.769-11.54 21.157-14.269c47.921-32.35 100.091-76.261 150.932-127.032l.601-.601c50.551-50.551 94.392-102.523 126.792-150.281z" fill="#4a568c"/><path d="m430.573 153.512 14.319-21.107 11.491 22.762c15.924 31.565 24.006 65.627 24.006 101.222 0 60.104-23.398 116.609-65.895 159.106l-.106.106-111.207-111.207.601-.601c50.551-50.551 94.391-102.523 126.791-150.281z" fill="#2f3c73"/><g><g><path d="m344.388 345.646h30v30h-30z" fill="#64729b"/></g></g><g><g><path d="m344.388 345.646h30v30z" fill="#4a568c"/></g></g><path d="m498.993 11.794c15.754 15.74 14.163 41.641 3.981 70.477-10.168 28.836-28.949 60.599-47.574 88.077-33.439 49.307-78.531 102.785-130.405 154.658l-.601.601c-52.17 52.1-105.882 97.284-155.358 130.68-40.135 27.082-89.513 54.44-125.243 54.433-12.763.007-23.773-3.479-32.011-11.717-15.118-15.118-15.691-40.935-1.697-76.735 9.15-23.377 24.19-50.608 44.71-80.943l14.411-21.325 11.448 23.059c5.063 10.196 11.052 19.976 17.854 29.168 38.014-16.617 95.269-60.847 152.919-118.539l.523-.523c57.339-57.453 101.859-114.926 119.353-153.591-9.284-6.88-19.177-12.926-29.515-18.045l-23.044-11.406 21.263-14.446c30.901-20.987 58.57-36.324 82.251-45.58 35.8-13.994 61.624-13.428 76.735 1.697z" fill="#f7bf00"/><path d="m498.993 11.794c15.754 15.74 14.163 41.641 3.981 70.477-10.168 28.836-28.949 60.599-47.574 88.077-33.439 49.307-78.531 102.785-130.405 154.658l-.601.601-72.443-72.443c57.339-57.453 101.859-114.926 119.353-153.591-9.284-6.88-19.177-12.926-29.515-18.045l-23.044-11.406 21.263-14.446c30.901-20.987 58.57-36.324 82.251-45.58 35.799-13.993 61.623-13.427 76.734 1.698z" fill="#f69100"/><path d="m407.104 89.908-3.528 9.878c-16.391 45.905-69.784 114.049-130.348 174.655-61.228 61.271-129.797 114.862-174.889 130.016l-9.765 3.274-6.569-7.927c-11.052-13.343-20.541-27.952-28.221-43.409-15.521-31.205-23.391-64.856-23.391-99.999 0-6.124.248-12.283.728-18.307 4.271-52.976 27.372-102.948 65.068-140.686 37.682-37.738 87.611-60.91 140.594-65.245 6.152-.509 12.417-.764 18.611-.764 35.016 0 68.561 7.821 99.702 23.25 15.677 7.757 30.462 17.366 43.933 28.56z" fill="#4a568c"/><path d="m403.576 99.786c-16.391 45.905-69.784 114.049-130.348 174.655l-177.039-177.038c37.682-37.738 87.611-60.91 140.594-65.245 6.152-.509 12.417-.764 18.611-.764 35.016 0 68.561 7.821 99.702 23.25 15.677 7.757 30.462 17.366 43.933 28.56l8.075 6.703z" fill="#2f3c73"/><g><g><path d="m84.388 246.396h30v30h-30z" fill="#64729b"/></g></g><g><g><path d="m144.388 216.396h30v30h-30z" fill="#64729b"/></g></g></g></svg>